<svg viewBox="0 0 752 752">
    <defs>
        <clipPath id="a">
            <path d="m175 139.21h400v473.58h-400z" />
        </clipPath>
    </defs>
    <g clip-path="url(#a)">
        <path
            d="m574.71 414.09c0.0625 15.711-6.1953 30.785-17.363 41.832l-139.51 139.51c-2.7188 2.7812-5.7305 5.2617-8.9805 7.4023-1.1406 0.73047-2.3281 1.3906-3.5508 1.9727l-2.0703 1.1836-4.5391 2.2695c-1.5703 0.64453-3.1875 1.1719-4.8359 1.5781l-2.2695 0.69141-4.0469 1.0859h0.003906c-7.6172 1.5781-15.473 1.5781-23.09 0l-4.0469-1.0859-2.2695-0.69141h0.003906c-1.6133-0.42188-3.1953-0.94922-4.7383-1.5781-1.6016-0.63672-3.1484-1.3945-4.6367-2.2695l-2.3672-1.1836c-1.2227-0.58203-2.4102-1.2422-3.5508-1.9727-3.25-2.1406-6.2617-4.6211-8.9805-7.4023l-139.21-139.51c-11.754-10.949-18.551-26.207-18.832-42.266-0.28516-16.059 5.9727-31.547 17.328-42.902 11.359-11.359 26.844-17.613 42.902-17.328 16.062 0.28125 31.316 7.0781 42.266 18.832l38.48 38.379v-212.22c0-21.152 11.281-40.695 29.598-51.27s40.883-10.574 59.199 0c18.316 10.574 29.598 30.117 29.598 51.27v212.22l38.477-38.379c11.102-11.09 26.152-17.316 41.844-17.312 15.688 0 30.734 6.2305 41.836 17.32 11.098 11.09 17.34 26.133 17.352 41.824z" />
    </g>
</svg>