<svg viewBox="0 0 538.18 467.41">
    <path
        d="M214.92,575,62.21,422.26c-17-17-16.39-45.08,1.31-62.78l148-148c16.93-16.93,43.81-17.49,60.05-1.25L429.92,368.6c12,12,11.59,31.9-.93,44.42L268.15,573.86C253.15,588.87,229.31,589.36,214.92,575Z"
        transform="translate(-29.85 -157.08)"
        fill="none"
        stroke="#d84315"
        stroke-miterlimit="10"
        stroke-width="40" />
    <path
        d="M210.1,570.15,62.21,422.26c-17-17-16.39-45.08,1.31-62.78L207.93,215.07c49.19-49.19,127.31-50.83,174.49-3.65L539.29,368.29c12,12,11.6,31.9-.93,44.42L384.57,566.5C335.39,615.69,257.27,617.32,210.1,570.15Z"
        transform="translate(-29.85 -157.08)"
        fill="none"
        stroke="#d84315"
        stroke-miterlimit="10"
        stroke-width="40" />
</svg>