<svg viewBox="0 0 752 752">
    <defs>
        <clipPath id="a">
            <path d="m178 139.21h397v473.58h-397z" />
        </clipPath>
    </defs>
    <g clip-path="url(#a)">
        <path
            d="m557.34 379.75c-11.102 11.086-26.145 17.312-41.832 17.312s-30.734-6.2266-41.836-17.312l-38.477-38.477v212.32c0 21.148-11.281 40.691-29.598 51.266-18.316 10.578-40.883 10.578-59.199 0-18.316-10.574-29.598-30.117-29.598-51.266v-212.32l-38.477 38.477h-0.003906c-15.109 14.078-36.465 19.266-56.348 13.688-19.887-5.5781-35.426-21.117-41.004-41.004-5.5781-19.883-0.39453-41.238 13.688-56.348l139.51-139.61c2.7227-2.7773 5.7305-5.2578 8.9805-7.3984 1.1836-0.78906 2.3672-1.3828 3.5508-2.0703l2.0703-1.0859c1.4883-0.875 3.0352-1.6328 4.6367-2.2695 1.5352-0.625 3.1211-1.1211 4.7383-1.4805l2.3672-0.69141c1.2383-0.5 2.5312-0.86328 3.8477-1.0859 7.6484-1.5781 15.539-1.5781 23.188 0 1.375 0.24609 2.7305 0.60938 4.043 1.0859l2.2695 0.69141c1.625 0.375 3.2109 0.90234 4.7344 1.5781 1.6016 0.63672 3.1523 1.3945 4.6367 2.2695l2.3711 1.1836c1.2227 0.58203 2.4102 1.2422 3.5508 1.9727 3.2656 2.1133 6.2812 4.5938 8.9766 7.3984l139.21 139.51c11.086 11.098 17.312 26.145 17.312 41.832s-6.2266 30.734-17.312 41.832z" />
    </g>
</svg>