<svg viewBox="0 0 512 512">
    <path
        d="m506.142 5.858c-7.811-7.811-20.474-7.811-28.284 0l-55.536 55.536c-46.339-39.704-104.761-61.394-166.322-61.394-68.38 0-132.667 26.628-181.02 74.98s-74.98 112.64-74.98 181.02c0 61.619 21.671 120 61.384 166.332l-55.526 55.526c-7.811 7.811-7.811 20.474 0 28.284 3.905 3.905 9.023 5.858 14.142 5.858s10.237-1.953 14.142-5.858l472-472c7.811-7.81 7.811-20.474 0-28.284zm-466.142 250.142c0-119.103 96.897-216 216-216 50.888 0 99.231 17.567 137.937 49.779l-304.159 304.159c-32.218-38.7-49.778-87.004-49.778-137.938zm447.428-109.57c16.305 34.383 24.572 71.247 24.572 109.57 0 50.531-14.999 99.674-43.374 142.116-3.856 5.768-10.191 8.886-16.645 8.886-3.821 0-7.683-1.092-11.098-3.375-9.183-6.139-11.65-18.56-5.511-27.742 23.963-35.841 36.628-77.296 36.628-119.885 0-32.348-6.969-63.446-20.714-92.43-4.733-9.98-.479-21.908 9.501-26.641 9.982-4.735 21.908-.479 26.641 9.501zm-92.222 301.209c5.723 9.447 2.703 21.746-6.745 27.468-39.844 24.136-85.648 36.893-132.461 36.893-37.489 0-73.623-7.925-107.399-23.555-10.024-4.639-14.39-16.526-9.751-26.55s16.526-14.388 26.55-9.751c28.473 13.175 58.955 19.856 90.6 19.856 39.505 0 78.143-10.756 111.738-31.106 9.446-5.724 21.745-2.704 27.468 6.745z" />
</svg>