<svg viewBox="0 0 512 512">
    <path d="m359.3,368.5h-206.6c-11.5,0-20.8,9.1-20.8,20.4 0,11.3 9.3,20.4 20.8,20.4h206.6c11.5,0 20.8-9.1 20.8-20.4 5.68434e-14-11.3-9.3-20.4-20.8-20.4z"/>
    <path d="m359.3,280.1h-206.6c-11.5,0-20.8,9.1-20.8,20.4s9.3,20.4 20.8,20.4h206.6c11.5,0 20.8-9.1 20.8-20.4s-9.3-20.4-20.8-20.4z"/>
    <path d="m359.3,191.8h-206.6c-11.5,0-20.8,9.1-20.8,20.4s9.3,20.4 20.8,20.4h206.6c11.5,0 20.8-9.1 20.8-20.4s-9.3-20.4-20.8-20.4z"/>
    <path d="m97.6,460.2v-408.4h199.4v84.6c0,5.4 2.2,10.6 6.1,14.4 3.9,3.8 9.2,6 14.7,6h96.6v303.4h-316.8l-0,0zm241-382.6l42.9,38.3h-42.9v-38.3zm110.6,43.7l-117.4-105c-3.8-3.4-8.8-5.3-14-5.3h-241c-11.5,3.55271e-15-20.8,9.1-20.8,20.4v449.2c0,11.3 9.3,20.4 20.8,20.4h358.4c11.5,0 20.8-9.1 20.8-20.4v-344.2c0-5.8-2.5-11.2-6.8-15.1z"/>
</svg>